<svg id="Capa_1" enable-background="new 0 0 512 512" height="512" viewBox="0 0 512 512" width="512" xmlns="http://www.w3.org/2000/svg"><g><path d="m11.002 262.477c-.001-.326-.002-.651-.002-.977 0-135.31 109.69-245 245-245s245 109.69 245 245c0 .326-.001.651-.002.977z" fill="#0494fb"/><path d="m450 232.958v42.959h-164.304v-42.959c0-38.66 31.34-70 70-70h24.304c38.66 0 70 31.34 70 70z" fill="#ab2538"/><path d="m450 232.958v42.959h-136.567v-49.521c0-35.036 28.402-63.438 63.438-63.438h3.129c38.66 0 70 31.34 70 70z" fill="#e43950"/><path d="m306.85 118.254c-7.656 0-13.863-6.207-13.863-13.863v-5.545c0-7.656 6.207-13.863 13.863-13.863 7.656 0 13.863 6.207 13.863 13.863v5.545c0 7.656-6.206 13.863-13.863 13.863z" fill="#f3d6ac"/><path d="m301.305 96.073v11.09c0 4.535 2.178 8.562 5.544 11.091-7.656-.001-13.862-6.207-13.862-13.863v-5.545c0-7.656 6.206-13.862 13.862-13.863-3.366 2.528-5.544 6.554-5.544 11.09zm127.541-11.091v-11.091c0-33.688-27.31-60.998-60.998-60.998-33.688 0-60.998 27.31-60.998 60.998v22.181c0 27.921 18.76 51.46 44.362 58.702v18.932c0 9.188 7.448 16.636 16.636 16.636 9.188 0 16.636-7.448 16.636-16.636v-18.932c18.624-5.268 33.627-19.16 40.422-37.088 1.249.369 2.571.568 3.94.568 7.656 0 13.863-6.207 13.863-13.863v-5.545c0-7.657-6.207-13.864-13.863-13.864z" fill="#eabe8d"/><path d="m428.846 73.892v22.181c0 28.125-19.035 51.804-44.924 58.858-5.082 1.384-10.43 1.384-15.512 0-25.89-7.054-44.924-30.733-44.924-58.858v-22.181c0-30.867 22.927-56.378 52.68-60.435 29.753 4.056 52.68 29.568 52.68 60.435z" fill="#f3d6ac"/><path d="m349.826 80.361c0 4.594-3.724 8.318-8.318 8.318-4.594 0-8.318-3.724-8.318-8.318s3.724-8.318 8.318-8.318c4.594 0 8.318 3.724 8.318 8.318zm44.362-8.318c-4.594 0-8.318 3.724-8.318 8.318s3.724 8.318 8.318 8.318 8.318-3.724 8.318-8.318-3.724-8.318-8.318-8.318z" fill="#002c5d"/><path d="m347.053 72.043c2.297 0 4.159 1.862 4.159 4.159s-1.862 4.159-4.159 4.159-4.159-1.862-4.159-4.159 1.862-4.159 4.159-4.159zm48.521 4.159c0 2.297 1.862 4.159 4.159 4.159s4.159-1.862 4.159-4.159-1.862-4.159-4.159-4.159-4.159 1.862-4.159 4.159z" fill="#fff5f5"/><path d="m382.292 125.108c-3.982 3.983-9.212 5.974-14.444 5.974-5.231 0-10.462-1.991-14.444-5.974-1.444-1.443-1.444-3.784 0-5.228s3.784-1.444 5.228 0c5.082 5.082 13.35 5.082 18.432 0 1.443-1.444 3.785-1.444 5.228 0 1.444 1.443 1.444 3.784 0 5.228zm-18.141-19.793h7.394c2.042 0 3.697-1.655 3.697-3.697s-1.655-3.697-3.697-3.697h-7.394c-2.042 0-3.697 1.655-3.697 3.697s1.656 3.697 3.697 3.697z" fill="#d89c56"/><path d="m428.846 66.498v5.545c-10.532 0-19.194-8.008-20.229-18.267-8.448 3.896-23.547 6.492-40.769 6.492s-32.321-2.596-40.769-6.492c-1.035 10.259-9.697 18.267-20.229 18.267v-5.545c0-33.688 27.31-60.998 60.998-60.998s60.998 27.31 60.998 60.998z" fill="#003c79"/><path d="m327.079 53.776c-1.035 10.259-9.697 18.267-20.229 18.267v-5.545c0-33.688 27.31-60.998 60.998-60.998 3.275 0 6.49.258 9.625.755-41.473 2.287-50.288 47.57-50.394 47.521z" fill="#002c5d"/><path d="m501 261.5c0 135.31-109.69 245-245 245-8.782 0-17.457-.462-26-1.363 0-38.362-31.099-69.461-69.461-69.461h-76.84c-44.888-44.408-72.699-106.044-72.699-174.176 0-1.336.011-2.669.032-4h489.936c.021 1.331.032 2.664.032 4z" fill="#003c79"/><path d="m208.846 321.113v89.951c0 10.279-8.954 18.613-20 18.613h-81.996c-11.046 0-20-8.333-20-18.613v-89.951c0-10.28 8.954-18.613 20-18.613h81.996c11.046 0 20 8.333 20 18.613z" fill="#f5c02c"/><path d="m123.486 429.677h-16.636c-11.046 0-20-8.333-20-18.613v-89.951c0-10.28 8.954-18.613 20-18.613h16.636c-11.046 0-20 8.333-20 18.613v89.951c0 10.279 8.954 18.613 20 18.613z" fill="#ce9047"/><path d="m512 235.5v60c0 5.523-4.477 10-10 10h-100l-27.929 27.929c-1.326 1.326-3.125 2.071-5 2.071-3.905 0-7.071-3.166-7.071-7.071v-22.929h-40c-5.523 0-10-4.477-10-10v-60c0-5.523 4.477-10 10-10h180c5.523 0 10 4.477 10 10z" fill="#f5c02c"/><path d="m332 305.5h-10c-5.523 0-10-4.477-10-10v-60c0-5.523 4.477-10 10-10h10z" fill="#fcb30b"/><path d="m280 15.5v60c0 5.523-4.477 10-10 10h-40v22.929c0 3.905-3.166 7.071-7.071 7.071-1.875 0-3.674-.745-5-2.071l-27.929-27.929h-100c-5.523 0-10-4.477-10-10v-60c0-5.523 4.477-10 10-10h180c5.523 0 10 4.477 10 10z" fill="#f5c02c"/><path d="m100 85.5h-10c-5.523 0-10-4.477-10-10v-60c0-5.523 4.477-10 10-10h10z" fill="#fcb30b"/><path d="m470 278c0 4.142-3.358 7.5-7.5 7.5h-105c-4.142 0-7.5-3.358-7.5-7.5s3.358-7.5 7.5-7.5h105c4.142 0 7.5 3.358 7.5 7.5zm-112.5-17.5h35c4.142 0 7.5-3.358 7.5-7.5s-3.358-7.5-7.5-7.5h-35c-4.142 0-7.5 3.358-7.5 7.5s3.358 7.5 7.5 7.5zm125-15h-65c-4.142 0-7.5 3.358-7.5 7.5s3.358 7.5 7.5 7.5h65c4.142 0 7.5-3.358 7.5-7.5s-3.358-7.5-7.5-7.5z" fill="#ce9047"/><path d="m470 355.5v60c0 5.523-4.477 10-10 10h-100l-27.929 27.929c-1.326 1.326-3.125 2.071-5 2.071-3.905 0-7.071-3.166-7.071-7.071v-22.929h-40c-5.523 0-10-4.477-10-10v-60c0-5.523 4.477-10 10-10h180c5.523 0 10 4.477 10 10zm-280-230h-180c-5.523 0-10 4.477-10 10v60c0 5.523 4.477 10 10 10h100l27.929 27.929c1.326 1.326 3.125 2.071 5 2.071 3.905 0 7.071-3.166 7.071-7.071v-22.929h40c5.523 0 10-4.477 10-10v-60c0-5.523-4.477-10-10-10z" fill="#bbe0fb"/><path d="m290 425.5h-10c-5.523 0-10-4.477-10-10v-60c0-5.523 4.477-10 10-10h10zm-270-300h-10c-5.523 0-10 4.477-10 10v60c0 5.523 4.477 10 10 10h10z" fill="#91cefb"/><path d="m135 43c0 4.142-3.358 7.5-7.5 7.5s-7.5-3.358-7.5-7.5 3.358-7.5 7.5-7.5 7.5 3.358 7.5 7.5zm22.5-7.5c-4.142 0-7.5 3.358-7.5 7.5s3.358 7.5 7.5 7.5 7.5-3.358 7.5-7.5-3.358-7.5-7.5-7.5zm30 0c-4.142 0-7.5 3.358-7.5 7.5s3.358 7.5 7.5 7.5 7.5-3.358 7.5-7.5-3.358-7.5-7.5-7.5z" fill="#fff5f5"/><path d="m80 178c0 4.142-3.358 7.5-7.5 7.5h-35c-4.142 0-7.5-3.358-7.5-7.5s3.358-7.5 7.5-7.5h35c4.142 0 7.5 3.358 7.5 7.5zm82.5-7.5h-65c-4.142 0-7.5 3.358-7.5 7.5s3.358 7.5 7.5 7.5h65c4.142 0 7.5-3.358 7.5-7.5s-3.358-7.5-7.5-7.5zm-125-10h105c4.142 0 7.5-3.358 7.5-7.5s-3.358-7.5-7.5-7.5h-105c-4.142 0-7.5 3.358-7.5 7.5s3.358 7.5 7.5 7.5zm310 217.5c-4.142 0-7.5 3.358-7.5 7.5s3.358 7.5 7.5 7.5 7.5-3.358 7.5-7.5-3.358-7.5-7.5-7.5zm30 0c-4.142 0-7.5 3.358-7.5 7.5s3.358 7.5 7.5 7.5 7.5-3.358 7.5-7.5-3.358-7.5-7.5-7.5zm-60 0c-4.142 0-7.5 3.358-7.5 7.5s3.358 7.5 7.5 7.5 7.5-3.358 7.5-7.5-3.358-7.5-7.5-7.5z" fill="#528ed7"/><path d="m230 482.541v22.596c-56.808-5.993-107.827-31.398-146.301-69.461 12.812-14.205 31.362-23.135 51.997-23.135h24.304c38.66 0 70 31.34 70 70z" fill="#22b27f"/><path d="m230 475.979v29.158c-43.805-4.621-84.168-20.785-117.992-45.395-13.968-10.163-12.652-31.524 2.568-39.694 8.923-4.79 19.125-7.507 29.961-7.507h22.025c35.036 0 63.438 28.402 63.438 63.438z" fill="#04d481"/><path d="m86.85 367.837c-7.656 0-13.863-6.207-13.863-13.863v-5.545c0-7.656 6.207-13.863 13.863-13.863 7.656 0 13.863 6.207 13.863 13.863v5.545c0 7.656-6.206 13.863-13.863 13.863z" fill="#f4e0d8"/><path d="m81.305 345.656v11.09c0 4.535 2.178 8.562 5.544 11.091-7.656-.001-13.862-6.207-13.862-13.863v-5.545c0-7.656 6.206-13.862 13.862-13.863-3.366 2.529-5.544 6.555-5.544 11.09zm127.541-11.091v-11.091c0-33.688-27.31-60.998-60.998-60.998-33.688 0-60.998 27.31-60.998 60.998v22.181c0 27.921 18.76 51.46 44.362 58.702v18.932c0 9.188 7.448 16.636 16.636 16.636 9.188 0 16.636-7.448 16.636-16.636v-18.932c18.624-5.268 33.627-19.16 40.422-37.088 1.249.369 2.571.568 3.94.568 7.656 0 13.863-6.207 13.863-13.863v-5.545c0-7.657-6.207-13.864-13.863-13.864z" fill="#efcfc8"/><path d="m208.846 323.475v22.181c0 27.952-18.801 51.512-44.447 58.725-5.381 1.514-11.084 1.514-16.465 0-25.646-7.213-44.447-30.774-44.447-58.725v-22.181c0-30.867 22.927-56.378 52.68-60.435 29.752 4.056 52.679 29.568 52.679 60.435z" fill="#f4e0d8"/><path d="m162.292 374.691c-3.982 3.983-9.212 5.974-14.444 5.974-5.231 0-10.462-1.991-14.444-5.974-1.444-1.443-1.444-3.784 0-5.228s3.784-1.444 5.228 0c5.082 5.082 13.35 5.082 18.432 0 1.443-1.444 3.785-1.444 5.228 0 1.444 1.444 1.444 3.785 0 5.228zm-18.141-19.793h7.394c2.042 0 3.697-1.655 3.697-3.697s-1.655-3.697-3.697-3.697h-7.394c-2.042 0-3.697 1.655-3.697 3.697s1.656 3.697 3.697 3.697z" fill="#e1a595"/><path d="m129.826 329.944c0 4.594-3.724 8.318-8.318 8.318-4.594 0-8.318-3.724-8.318-8.318s3.724-8.318 8.318-8.318c4.594 0 8.318 3.725 8.318 8.318zm44.362-8.318c-4.594 0-8.318 3.724-8.318 8.318s3.724 8.318 8.318 8.318 8.318-3.724 8.318-8.318-3.724-8.318-8.318-8.318z" fill="#533022"/><path d="m131.212 325.785c0 2.297-1.862 4.159-4.159 4.159s-4.159-1.862-4.159-4.159 1.862-4.159 4.159-4.159 4.159 1.862 4.159 4.159zm48.521-4.159c-2.297 0-4.159 1.862-4.159 4.159s1.862 4.159 4.159 4.159 4.159-1.862 4.159-4.159-1.862-4.159-4.159-4.159z" fill="#fff5f5"/><path d="m208.846 316.081v5.545c-10.532 0-19.194-8.008-20.229-18.267-8.448 3.896-23.547 6.492-40.769 6.492s-32.321-2.596-40.769-6.492c-1.035 10.259-9.697 18.267-20.229 18.267v-5.545c0-33.688 27.31-60.998 60.998-60.998s60.998 27.31 60.998 60.998z" fill="#f5c02c"/><path d="m107.079 303.359c-1.035 10.259-9.697 18.267-20.229 18.267v-5.545c0-33.688 27.31-60.998 60.998-60.998 3.275 0 6.49.258 9.625.755-41.473 2.287-50.288 47.57-50.394 47.521z" fill="#ce9047"/></g></svg>